<svg width="864" height="1117" viewBox="0 0 864 1117" fill="none" xmlns="http://www.w3.org/2000/svg">
<rect width="675" height="1117" fill="#FF6201"/>
<path d="M556.419 145.837C629.551 145.837 688.837 86.5514 688.837 13.4186C688.837 -59.7142 629.551 -119 556.419 -119C483.286 -119 424 -59.7142 424 13.4186C424 86.5514 483.286 145.837 556.419 145.837Z" fill="white" fill-opacity="0.1"/>
<path d="M499.5 1133C541.198 1133 575 1099.2 575 1057.5C575 1015.8 541.198 982 499.5 982C457.802 982 424 1015.8 424 1057.5C424 1099.2 457.802 1133 499.5 1133Z" fill="white" fill-opacity="0.1"/>
<path d="M216.213 431.412C216.213 430.361 216.213 429.311 216.213 428.26C216.213 426.158 216.213 423.006 215.161 420.905C214.11 411.448 210.957 401.992 206.753 392.536C202.548 385.181 198.344 377.826 192.037 371.521C186.781 365.217 180.475 359.964 173.117 355.761C159.452 348.406 143.686 344.203 127.919 343.152C120.561 343.152 113.204 343.152 105.846 345.254C94.2835 347.355 83.7724 351.558 74.3124 357.862C65.9035 363.116 58.5457 370.471 52.239 377.826C45.9323 386.231 40.6768 394.637 37.5234 404.094C33.319 415.651 31.2167 427.209 32.2679 439.818C32.2679 444.021 33.319 448.223 33.319 452.426C34.3701 461.883 38.5745 470.288 42.779 477.643C46.9834 483.948 51.1879 490.252 56.4434 495.506C58.5457 497.607 60.6479 499.708 62.7501 499.708C69.0568 506.013 76.4146 510.215 83.7724 513.368C92.1813 517.57 101.641 520.723 111.101 521.773C116.357 522.824 120.561 522.824 125.817 522.824C133.175 521.773 140.532 522.824 147.89 523.875C158.401 525.976 168.912 530.179 177.321 537.534C196.241 553.295 206.753 574.309 208.855 599.526C208.855 604.78 208.855 610.033 208.855 616.338C207.804 626.845 205.701 637.352 201.497 646.808C196.241 659.417 187.832 670.975 175.219 679.38C172.066 681.482 168.912 683.583 164.708 685.685C159.452 687.786 154.197 688.837 147.89 689.888C144.737 689.888 142.635 690.938 139.481 690.938C137.379 690.938 136.328 690.938 134.226 690.938C124.766 691.989 117.408 697.242 112.152 704.597C104.795 714.054 101.641 724.561 102.692 736.119C103.743 742.423 104.795 748.727 108.999 753.981C114.255 761.336 120.561 767.64 128.97 769.742C133.175 770.792 138.43 771.843 142.635 770.792C142.635 769.742 141.584 769.742 141.584 769.742C139.481 768.691 137.379 767.64 135.277 766.59C130.021 762.387 124.766 758.184 121.612 751.88C124.766 758.184 128.97 762.387 135.277 766.59C137.379 767.64 139.481 768.691 141.584 769.742C142.635 769.742 142.635 770.792 142.635 770.792C143.686 770.792 144.737 771.843 146.839 771.843C149.992 772.894 153.146 773.945 155.248 774.995C160.504 778.147 163.657 783.401 164.708 789.705C165.759 797.06 165.759 804.415 166.81 811.77C167.861 818.075 167.861 823.328 168.912 829.632C169.964 835.937 169.964 843.292 171.015 849.596C172.066 855.9 172.066 861.154 173.117 867.458C174.168 873.762 174.168 880.067 175.219 885.32C176.27 891.624 176.27 897.929 177.321 903.182C178.372 909.487 178.372 914.74 179.424 921.044C180.475 928.399 180.475 935.754 182.577 944.16C184.679 952.566 186.781 960.971 192.037 969.377C199.395 981.986 208.855 991.442 223.57 997.746C231.979 1000.9 241.439 1003 250.899 1003C257.206 1003 263.513 1003 269.819 1003C278.228 1001.95 285.586 1000.9 293.995 998.797C308.71 995.645 323.426 991.442 338.142 986.189C364.419 977.783 390.697 967.276 415.924 957.819C455.866 942.059 495.808 926.298 535.751 909.487C567.284 895.827 598.817 881.117 629.3 866.407C649.271 856.951 669.242 846.444 688.162 835.937C717.593 820.176 744.922 802.314 772.251 782.35C790.12 769.742 806.938 757.133 822.704 742.423C832.164 734.017 840.573 725.612 848.982 715.105C853.187 709.851 857.391 703.547 859.493 697.242C862.647 690.938 863.698 683.583 863.698 676.228C863.698 668.873 861.596 662.569 858.442 656.265C854.238 647.859 848.982 640.504 842.676 633.149C836.369 625.794 829.011 619.49 822.704 614.236C813.244 605.83 801.682 598.475 791.171 590.07C768.047 573.258 743.871 557.498 718.644 543.838C694.469 530.179 669.242 517.571 642.964 504.962C617.737 493.404 592.511 481.846 567.284 470.288C544.16 459.781 521.035 450.325 496.86 440.868C492.655 438.767 487.4 436.666 484.246 433.513C481.093 430.361 478.991 428.26 477.94 424.057C476.888 421.956 477.94 419.854 478.991 417.753C486.348 406.195 488.451 393.586 485.297 379.927C484.246 375.724 483.195 371.521 480.042 367.319C480.042 368.369 480.042 369.42 481.093 370.471C483.195 374.674 484.246 378.876 485.297 384.13C486.348 393.586 485.297 401.992 482.144 410.398C482.144 411.448 481.093 412.499 480.042 414.601C481.093 413.55 481.093 412.499 482.144 411.448C485.297 403.043 487.4 394.637 485.297 385.181C484.246 380.978 483.195 375.724 481.093 371.521C481.093 370.471 480.042 369.42 480.042 368.369L478.991 367.319L477.94 366.268V365.217C475.837 361.014 472.684 357.862 469.531 354.71C460.071 344.203 449.559 341.051 439.048 340C435.895 340 432.742 340 430.639 341.051C419.077 342.101 409.617 347.355 402.259 355.761C397.004 361.014 393.851 367.319 391.748 374.674C390.697 378.876 389.646 382.029 389.646 386.231C388.595 388.333 388.595 390.434 388.595 392.536C387.544 397.789 386.493 404.094 385.442 409.347C380.186 428.26 370.726 442.97 354.959 454.528C340.244 465.035 323.426 470.288 304.506 472.39C298.199 473.441 291.893 473.441 284.535 472.39C276.126 472.39 268.768 471.339 260.359 469.238C251.95 467.136 244.593 465.035 238.286 459.781C226.724 453.477 220.417 444.021 216.213 431.412ZM660.833 821.227C621.942 860.103 574.642 879.016 518.933 880.067C463.224 879.016 414.873 859.052 375.982 819.125C338.142 780.249 320.273 734.017 319.222 686.735C319.222 569.055 409.617 478.694 521.035 480.796C574.642 481.846 620.891 500.759 659.782 538.585C698.673 577.461 718.644 625.794 719.695 680.431C718.644 735.068 699.724 782.35 660.833 821.227Z" fill="white" fill-opacity="0.1"/>
<path d="M523.419 822.837C596.551 822.837 655.837 763.551 655.837 690.419C655.837 617.286 596.551 558 523.419 558C450.286 558 391 617.286 391 690.419C391 763.551 450.286 822.837 523.419 822.837Z" fill="white" fill-opacity="0.1"/>
<path d="M-43.5 690C-1.8025 690 32 656.197 32 614.5C32 572.802 -1.8025 539 -43.5 539C-85.1975 539 -119 572.802 -119 614.5C-119 656.197 -85.1975 690 -43.5 690Z" fill="white" fill-opacity="0.1"/>
</svg>
