<svg width="673" height="1117" viewBox="0 0 673 1117" fill="none" xmlns="http://www.w3.org/2000/svg">
<g clip-path="url(#clip0_278_889)">
<rect width="673" height="1117" fill="#FF6315"/>
<path d="M554.419 145.837C627.551 145.837 686.837 86.5514 686.837 13.4186C686.837 -59.7142 627.551 -119 554.419 -119C481.286 -119 422 -59.7142 422 13.4186C422 86.5514 481.286 145.837 554.419 145.837Z" fill="white" fill-opacity="0.1"/>
<path d="M497.5 1133C539.198 1133 573 1099.2 573 1057.5C573 1015.8 539.198 982 497.5 982C455.802 982 422 1015.8 422 1057.5C422 1099.2 455.802 1133 497.5 1133Z" fill="white" fill-opacity="0.1"/>
<path d="M214.213 431.412C214.213 430.361 214.213 429.311 214.213 428.26C214.213 426.158 214.213 423.006 213.161 420.905C212.11 411.448 208.957 401.992 204.753 392.536C200.548 385.181 196.344 377.826 190.037 371.521C184.781 365.217 178.475 359.964 171.117 355.761C157.452 348.406 141.686 344.203 125.919 343.152C118.561 343.152 111.204 343.152 103.846 345.254C92.2835 347.355 81.7724 351.558 72.3124 357.862C63.9035 363.116 56.5457 370.471 50.239 377.826C43.9323 386.231 38.6768 394.637 35.5234 404.094C31.319 415.651 29.2167 427.209 30.2679 439.818C30.2679 444.021 31.319 448.223 31.319 452.426C32.3701 461.883 36.5745 470.288 40.779 477.643C44.9834 483.948 49.1879 490.252 54.4434 495.506C56.5457 497.607 58.6479 499.708 60.7501 499.708C67.0568 506.013 74.4146 510.216 81.7724 513.368C90.1813 517.57 99.6413 520.723 109.101 521.773C114.357 522.824 118.561 522.824 123.817 522.824C131.175 521.773 138.532 522.824 145.89 523.875C156.401 525.976 166.912 530.179 175.321 537.534C194.241 553.295 204.753 574.309 206.855 599.526C206.855 604.78 206.855 610.033 206.855 616.338C205.804 626.845 203.701 637.352 199.497 646.808C194.241 659.417 185.832 670.975 173.219 679.38C170.066 681.482 166.912 683.583 162.708 685.685C157.452 687.786 152.197 688.837 145.89 689.888C142.737 689.888 140.635 690.938 137.481 690.938C135.379 690.938 134.328 690.938 132.226 690.938C122.766 691.989 115.408 697.242 110.152 704.597C102.795 714.054 99.6413 724.561 100.692 736.119C101.744 742.423 102.795 748.727 106.999 753.981C112.255 761.336 118.561 767.64 126.97 769.742C131.175 770.792 136.43 771.843 140.635 770.792C140.635 769.742 139.584 769.742 139.584 769.742C137.481 768.691 135.379 767.64 133.277 766.59C128.021 762.387 122.766 758.184 119.612 751.88C122.766 758.184 126.97 762.387 133.277 766.59C135.379 767.64 137.481 768.691 139.584 769.742C140.635 769.742 140.635 770.792 140.635 770.792C141.686 770.792 142.737 771.843 144.839 771.843C147.992 772.894 151.146 773.945 153.248 774.995C158.504 778.147 161.657 783.401 162.708 789.705C163.759 797.06 163.759 804.415 164.81 811.77C165.861 818.075 165.861 823.328 166.912 829.632C167.964 835.937 167.964 843.292 169.015 849.596C170.066 855.9 170.066 861.154 171.117 867.458C172.168 873.762 172.168 880.067 173.219 885.32C174.27 891.624 174.27 897.929 175.321 903.182C176.372 909.487 176.372 914.74 177.424 921.044C178.475 928.399 178.475 935.754 180.577 944.16C182.679 952.566 184.781 960.972 190.037 969.377C197.395 981.986 206.855 991.442 221.57 997.746C229.979 1000.9 239.439 1003 248.899 1003C255.206 1003 261.513 1003 267.819 1003C276.228 1001.95 283.586 1000.9 291.995 998.797C306.71 995.645 321.426 991.442 336.142 986.189C362.419 977.783 388.697 967.276 413.924 957.819C453.866 942.059 493.808 926.298 533.751 909.487C565.284 895.827 596.817 881.117 627.3 866.407C647.271 856.951 667.242 846.444 686.162 835.937C715.593 820.176 742.922 802.314 770.251 782.35C788.12 769.742 804.938 757.133 820.704 742.423C830.164 734.017 838.573 725.612 846.982 715.105C851.187 709.851 855.391 703.547 857.493 697.242C860.647 690.938 861.698 683.583 861.698 676.228C861.698 668.873 859.596 662.569 856.442 656.265C852.238 647.859 846.982 640.504 840.676 633.149C834.369 625.794 827.011 619.49 820.704 614.236C811.244 605.83 799.682 598.475 789.171 590.07C766.047 573.258 741.871 557.498 716.644 543.838C692.469 530.179 667.242 517.571 640.964 504.962C615.737 493.404 590.511 481.846 565.284 470.288C542.16 459.781 519.035 450.325 494.86 440.868C490.655 438.767 485.4 436.666 482.246 433.513C479.093 430.361 476.991 428.26 475.94 424.057C474.888 421.956 475.94 419.854 476.991 417.753C484.348 406.195 486.451 393.586 483.297 379.927C482.246 375.724 481.195 371.521 478.042 367.319C478.042 368.369 478.042 369.42 479.093 370.471C481.195 374.674 482.246 378.876 483.297 384.13C484.348 393.586 483.297 401.992 480.144 410.398C480.144 411.448 479.093 412.499 478.042 414.601C479.093 413.55 479.093 412.499 480.144 411.448C483.297 403.043 485.4 394.637 483.297 385.181C482.246 380.978 481.195 375.724 479.093 371.521C479.093 370.471 478.042 369.42 478.042 368.369L476.991 367.319L475.94 366.268V365.217C473.837 361.014 470.684 357.862 467.531 354.71C458.071 344.203 447.559 341.051 437.048 340C433.895 340 430.742 340 428.639 341.051C417.077 342.101 407.617 347.355 400.259 355.761C395.004 361.014 391.851 367.319 389.748 374.674C388.697 378.876 387.646 382.029 387.646 386.231C386.595 388.333 386.595 390.434 386.595 392.536C385.544 397.789 384.493 404.094 383.442 409.347C378.186 428.26 368.726 442.97 352.959 454.528C338.244 465.035 321.426 470.288 302.506 472.39C296.199 473.441 289.893 473.441 282.535 472.39C274.126 472.39 266.768 471.339 258.359 469.238C249.95 467.136 242.593 465.035 236.286 459.781C224.724 453.477 218.417 444.021 214.213 431.412ZM658.833 821.227C619.942 860.103 572.642 879.016 516.933 880.067C461.224 879.016 412.873 859.052 373.982 819.125C336.142 780.249 318.273 734.017 317.222 686.735C317.222 569.055 407.617 478.694 519.035 480.796C572.642 481.846 618.891 500.759 657.782 538.585C696.673 577.461 716.644 625.794 717.695 680.431C716.644 735.068 697.724 782.35 658.833 821.227Z" fill="white" fill-opacity="0.1"/>
<path d="M521.419 822.837C594.551 822.837 653.837 763.551 653.837 690.419C653.837 617.286 594.551 558 521.419 558C448.286 558 389 617.286 389 690.419C389 763.551 448.286 822.837 521.419 822.837Z" fill="white" fill-opacity="0.1"/>
<path d="M-45.5 690C-3.8025 690 30 656.197 30 614.5C30 572.802 -3.8025 539 -45.5 539C-87.1975 539 -121 572.802 -121 614.5C-121 656.197 -87.1975 690 -45.5 690Z" fill="white" fill-opacity="0.1"/>
<path d="M105.28 180.056C107.029 180.056 108.48 180.632 109.632 181.784C110.827 182.893 111.424 184.259 111.424 185.88C111.424 187.544 110.848 188.931 109.696 190.04C108.544 191.107 107.072 191.64 105.28 191.64C103.488 191.64 102.016 191.107 100.864 190.04C99.712 188.931 99.136 187.544 99.136 185.88C99.136 184.259 99.712 182.893 100.864 181.784C102.059 180.632 103.531 180.056 105.28 180.056ZM111.232 224.856H99.328L101.312 196.12H109.248L111.232 224.856ZM185.587 170.2L170.931 215H159.795L149.939 184.664L139.763 215H128.691L113.971 170.2H124.723L134.835 201.688L145.395 170.2H154.995L165.235 201.944L175.667 170.2H185.587ZM221.836 197.912C221.836 198.04 221.772 198.936 221.644 200.6H195.596C196.065 202.733 197.175 204.419 198.924 205.656C200.673 206.893 202.849 207.512 205.452 207.512C207.244 207.512 208.823 207.256 210.188 206.744C211.596 206.189 212.897 205.336 214.092 204.184L219.404 209.944C216.161 213.656 211.425 215.512 205.196 215.512C201.313 215.512 197.879 214.765 194.892 213.272C191.905 211.736 189.601 209.624 187.98 206.936C186.359 204.248 185.548 201.197 185.548 197.784C185.548 194.413 186.337 191.384 187.916 188.696C189.537 185.965 191.735 183.853 194.508 182.36C197.324 180.824 200.46 180.056 203.916 180.056C207.287 180.056 210.337 180.781 213.068 182.232C215.799 183.683 217.932 185.773 219.468 188.504C221.047 191.192 221.836 194.328 221.836 197.912ZM203.98 187.608C201.719 187.608 199.82 188.248 198.284 189.528C196.748 190.808 195.809 192.557 195.468 194.776H212.428C212.087 192.6 211.148 190.872 209.612 189.592C208.076 188.269 206.199 187.608 203.98 187.608ZM228.483 167.512H238.467V215H228.483V167.512ZM264.373 215.512C260.704 215.512 257.397 214.765 254.453 213.272C251.552 211.736 249.269 209.624 247.605 206.936C245.984 204.248 245.173 201.197 245.173 197.784C245.173 194.371 245.984 191.32 247.605 188.632C249.269 185.944 251.552 183.853 254.453 182.36C257.397 180.824 260.704 180.056 264.373 180.056C268 180.056 271.157 180.824 273.845 182.36C276.576 183.853 278.56 186.008 279.797 188.824L272.053 192.984C270.261 189.827 267.68 188.248 264.309 188.248C261.706 188.248 259.552 189.101 257.845 190.808C256.138 192.515 255.285 194.84 255.285 197.784C255.285 200.728 256.138 203.053 257.845 204.76C259.552 206.467 261.706 207.32 264.309 207.32C267.722 207.32 270.304 205.741 272.053 202.584L279.797 206.808C278.56 209.539 276.576 211.672 273.845 213.208C271.157 214.744 268 215.512 264.373 215.512ZM301.492 215.512C297.865 215.512 294.601 214.765 291.7 213.272C288.841 211.736 286.601 209.624 284.98 206.936C283.359 204.248 282.548 201.197 282.548 197.784C282.548 194.371 283.359 191.32 284.98 188.632C286.601 185.944 288.841 183.853 291.7 182.36C294.601 180.824 297.865 180.056 301.492 180.056C305.119 180.056 308.361 180.824 311.22 182.36C314.079 183.853 316.319 185.944 317.94 188.632C319.561 191.32 320.372 194.371 320.372 197.784C320.372 201.197 319.561 204.248 317.94 206.936C316.319 209.624 314.079 211.736 311.22 213.272C308.361 214.765 305.119 215.512 301.492 215.512ZM301.492 207.32C304.052 207.32 306.143 206.467 307.764 204.76C309.428 203.011 310.26 200.685 310.26 197.784C310.26 194.883 309.428 192.579 307.764 190.872C306.143 189.123 304.052 188.248 301.492 188.248C298.932 188.248 296.82 189.123 295.156 190.872C293.492 192.579 292.66 194.883 292.66 197.784C292.66 200.685 293.492 203.011 295.156 204.76C296.82 206.467 298.932 207.32 301.492 207.32ZM371.142 180.056C375.451 180.056 378.864 181.336 381.382 183.896C383.942 186.413 385.222 190.211 385.222 195.288V215H375.238V196.824C375.238 194.093 374.662 192.067 373.51 190.744C372.4 189.379 370.8 188.696 368.71 188.696C366.363 188.696 364.507 189.464 363.142 191C361.776 192.493 361.094 194.733 361.094 197.72V215H351.11V196.824C351.11 191.405 348.934 188.696 344.582 188.696C342.278 188.696 340.443 189.464 339.078 191C337.712 192.493 337.03 194.733 337.03 197.72V215H327.046V180.568H336.582V184.536C337.862 183.085 339.419 181.976 341.253 181.208C343.131 180.44 345.179 180.056 347.398 180.056C349.83 180.056 352.027 180.547 353.99 181.528C355.952 182.467 357.531 183.853 358.726 185.688C360.134 183.896 361.904 182.509 364.038 181.528C366.214 180.547 368.582 180.056 371.142 180.056ZM428.274 197.912C428.274 198.04 428.21 198.936 428.082 200.6H402.034C402.503 202.733 403.612 204.419 405.362 205.656C407.111 206.893 409.287 207.512 411.89 207.512C413.682 207.512 415.26 207.256 416.626 206.744C418.034 206.189 419.335 205.336 420.53 204.184L425.842 209.944C422.599 213.656 417.863 215.512 411.634 215.512C407.751 215.512 404.316 214.765 401.33 213.272C398.343 211.736 396.039 209.624 394.418 206.936C392.796 204.248 391.986 201.197 391.986 197.784C391.986 194.413 392.775 191.384 394.354 188.696C395.975 185.965 398.172 183.853 400.946 182.36C403.762 180.824 406.898 180.056 410.354 180.056C413.724 180.056 416.775 180.781 419.506 182.232C422.236 183.683 424.37 185.773 425.906 188.504C427.484 191.192 428.274 194.328 428.274 197.912ZM410.418 187.608C408.156 187.608 406.258 188.248 404.722 189.528C403.186 190.808 402.247 192.557 401.906 194.776H418.866C418.524 192.6 417.586 190.872 416.05 189.592C414.514 188.269 412.636 187.608 410.418 187.608ZM475.254 213.336C474.272 214.061 473.056 214.616 471.606 215C470.198 215.341 468.704 215.512 467.126 215.512C463.03 215.512 459.851 214.467 457.59 212.376C455.371 210.285 454.262 207.213 454.262 203.16V189.016H448.95V181.336H454.262V172.952H464.246V181.336H472.822V189.016H464.246V203.032C464.246 204.483 464.608 205.613 465.333 206.424C466.102 207.192 467.168 207.576 468.534 207.576C470.112 207.576 471.456 207.149 472.566 206.296L475.254 213.336ZM496.18 215.512C492.553 215.512 489.289 214.765 486.388 213.272C483.529 211.736 481.289 209.624 479.668 206.936C478.046 204.248 477.236 201.197 477.236 197.784C477.236 194.371 478.046 191.32 479.668 188.632C481.289 185.944 483.529 183.853 486.388 182.36C489.289 180.824 492.553 180.056 496.18 180.056C499.806 180.056 503.049 180.824 505.908 182.36C508.766 183.853 511.006 185.944 512.628 188.632C514.249 191.32 515.06 194.371 515.06 197.784C515.06 201.197 514.249 204.248 512.628 206.936C511.006 209.624 508.766 211.736 505.908 213.272C503.049 214.765 499.806 215.512 496.18 215.512ZM496.18 207.32C498.74 207.32 500.83 206.467 502.452 204.76C504.116 203.011 504.948 200.685 504.948 197.784C504.948 194.883 504.116 192.579 502.452 190.872C500.83 189.123 498.74 188.248 496.18 188.248C493.62 188.248 491.508 189.123 489.844 190.872C488.18 192.579 487.348 194.883 487.348 197.784C487.348 200.685 488.18 203.011 489.844 204.76C491.508 206.467 493.62 207.32 496.18 207.32ZM123.008 293.768C118.357 293.768 114.155 292.765 110.4 290.76C106.688 288.755 103.765 286.003 101.632 282.504C99.5413 278.963 98.496 274.995 98.496 270.6C98.496 266.205 99.5413 262.259 101.632 258.76C103.765 255.219 106.688 252.445 110.4 250.44C114.155 248.435 118.357 247.432 123.008 247.432C127.659 247.432 131.84 248.435 135.552 250.44C139.264 252.445 142.187 255.219 144.32 258.76C146.453 262.259 147.52 266.205 147.52 270.6C147.52 274.995 146.453 278.963 144.32 282.504C142.187 286.003 139.264 288.755 135.552 290.76C131.84 292.765 127.659 293.768 123.008 293.768ZM123.008 284.936C125.653 284.936 128.043 284.339 130.176 283.144C132.309 281.907 133.973 280.2 135.168 278.024C136.405 275.848 137.024 273.373 137.024 270.6C137.024 267.827 136.405 265.352 135.168 263.176C133.973 261 132.309 259.315 130.176 258.12C128.043 256.883 125.653 256.264 123.008 256.264C120.363 256.264 117.973 256.883 115.84 258.12C113.707 259.315 112.021 261 110.784 263.176C109.589 265.352 108.992 267.827 108.992 270.6C108.992 273.373 109.589 275.848 110.784 278.024C112.021 280.2 113.707 281.907 115.84 283.144C117.973 284.339 120.363 284.936 123.008 284.936ZM153.578 270.984H171.69V278.984H153.578V270.984ZM179.546 245.512H189.53V293H179.546V245.512ZM212.684 258.056C218.017 258.056 222.113 259.336 224.972 261.896C227.83 264.413 229.26 268.232 229.26 273.352V293H219.916V288.712C218.038 291.912 214.54 293.512 209.42 293.512C206.774 293.512 204.47 293.064 202.508 292.168C200.588 291.272 199.116 290.035 198.092 288.456C197.068 286.877 196.556 285.085 196.556 283.08C196.556 279.88 197.75 277.363 200.14 275.528C202.572 273.693 206.305 272.776 211.34 272.776H219.276C219.276 270.6 218.614 268.936 217.292 267.784C215.969 266.589 213.985 265.992 211.34 265.992C209.505 265.992 207.692 266.291 205.9 266.888C204.15 267.443 202.657 268.211 201.42 269.192L197.836 262.216C199.713 260.893 201.953 259.869 204.556 259.144C207.201 258.419 209.91 258.056 212.684 258.056ZM211.916 286.792C213.622 286.792 215.137 286.408 216.46 285.64C217.782 284.829 218.721 283.656 219.276 282.12V278.6H212.428C208.332 278.6 206.284 279.944 206.284 282.632C206.284 283.912 206.774 284.936 207.756 285.704C208.78 286.429 210.166 286.792 211.916 286.792ZM258.648 258.056C261.848 258.056 264.749 258.803 267.352 260.296C269.997 261.747 272.066 263.816 273.56 266.504C275.053 269.149 275.8 272.243 275.8 275.784C275.8 279.325 275.053 282.44 273.56 285.128C272.066 287.773 269.997 289.843 267.352 291.336C264.749 292.787 261.848 293.512 258.648 293.512C253.912 293.512 250.306 292.019 247.832 289.032V293H238.296V245.512H248.28V262.216C250.797 259.443 254.253 258.056 258.648 258.056ZM256.92 285.32C259.48 285.32 261.57 284.467 263.192 282.76C264.856 281.011 265.688 278.685 265.688 275.784C265.688 272.883 264.856 270.579 263.192 268.872C261.57 267.123 259.48 266.248 256.92 266.248C254.36 266.248 252.248 267.123 250.583 268.872C248.962 270.579 248.152 272.883 248.152 275.784C248.152 278.685 248.962 281.011 250.583 282.76C252.248 284.467 254.36 285.32 256.92 285.32ZM281.203 248.2H293.107L291.123 277.448H283.187L281.203 248.2ZM287.155 293.512C285.406 293.512 283.934 292.957 282.739 291.848C281.587 290.696 281.011 289.309 281.011 287.688C281.011 286.067 281.587 284.723 282.739 283.656C283.891 282.547 285.363 281.992 287.155 281.992C288.947 281.992 290.419 282.547 291.571 283.656C292.723 284.723 293.299 286.067 293.299 287.688C293.299 289.309 292.702 290.696 291.507 291.848C290.355 292.957 288.904 293.512 287.155 293.512Z" fill="#FFE5D6"/>
</g>
<defs>
<clipPath id="clip0_278_889">
<rect width="673" height="1117" fill="white"/>
</clipPath>
</defs>
</svg>
