<svg width="173" height="173" viewBox="0 0 173 173" fill="none" xmlns="http://www.w3.org/2000/svg">
<rect width="173" height="173" rx="20" fill="#FF5E00"/>
<path d="M50.7593 49.9256C50.7593 49.7656 50.7593 49.6055 50.7593 49.4454C50.7593 49.1253 50.7593 48.6451 50.5989 48.325C50.4384 46.8844 49.957 45.4438 49.3151 44.0032C48.6732 42.8828 48.0314 41.7623 47.0685 40.8019C46.2662 39.8416 45.3034 39.0412 44.1801 38.401C42.094 37.2805 39.6869 36.6403 37.2799 36.4802C36.1566 36.4802 35.0333 36.4802 33.91 36.8003C32.1448 37.1205 30.5401 37.7607 29.0959 38.7211C27.8122 39.5214 26.6889 40.6419 25.726 41.7623C24.7632 43.0429 23.9609 44.3234 23.4795 45.764C22.8376 47.5247 22.5167 49.2854 22.6771 51.2062C22.6771 51.8464 22.8376 52.4867 22.8376 53.1269C22.9981 54.5675 23.6399 55.848 24.2818 56.9685C24.9237 57.9289 25.5656 58.8893 26.3679 59.6896C26.6889 60.0097 27.0098 60.3298 27.3307 60.3298C28.2936 61.2902 29.4169 61.9305 30.5401 62.4107C31.8239 63.0509 33.2681 63.5311 34.7124 63.6912C35.5147 63.8513 36.1566 63.8513 36.9589 63.8513C38.0822 63.6912 39.2055 63.8513 40.3288 64.0113C41.9335 64.3315 43.5382 64.9717 44.822 66.0922C47.7104 68.4932 49.3151 71.6944 49.6361 75.536C49.6361 76.3363 49.6361 77.1367 49.6361 78.097C49.4756 79.6977 49.1546 81.2983 48.5128 82.7389C47.7104 84.6597 46.4267 86.4204 44.501 87.7009C44.0196 88.0211 43.5382 88.3412 42.8963 88.6613C42.094 88.9814 41.2916 89.1415 40.3288 89.3016C39.8474 89.3016 39.5265 89.4616 39.045 89.4616C38.7241 89.4616 38.5636 89.4616 38.2427 89.4616C36.7985 89.6217 35.6752 90.422 34.8728 91.5425C33.7495 92.9831 33.2681 94.5837 33.4286 96.3444C33.5891 97.3048 33.7495 98.2652 34.3914 99.0655C35.1938 100.186 36.1566 101.146 37.4403 101.466C38.0822 101.627 38.8846 101.787 39.5265 101.627C39.5265 101.466 39.366 101.466 39.366 101.466C39.045 101.306 38.7241 101.146 38.4032 100.986C37.6008 100.346 36.7985 99.7058 36.3171 98.7454C36.7985 99.7058 37.4403 100.346 38.4032 100.986C38.7241 101.146 39.045 101.306 39.366 101.466C39.5265 101.466 39.5265 101.627 39.5265 101.627C39.6869 101.627 39.8474 101.787 40.1683 101.787C40.6497 101.947 41.1312 102.107 41.4521 102.267C42.2544 102.747 42.7358 103.547 42.8963 104.508C43.0568 105.628 43.0568 106.749 43.2173 107.869C43.3777 108.829 43.3777 109.63 43.5382 110.59C43.6987 111.551 43.6987 112.671 43.8591 113.631C44.0196 114.592 44.0196 115.392 44.1801 116.353C44.3405 117.313 44.3405 118.273 44.501 119.074C44.6615 120.034 44.6615 120.994 44.822 121.795C44.9824 122.755 44.9824 123.555 45.1429 124.516C45.3034 125.636 45.3034 126.757 45.6243 128.037C45.9452 129.318 46.2662 130.598 47.0685 131.879C48.1918 133.8 49.6361 135.24 51.8826 136.201C53.1664 136.681 54.6106 137.001 56.0548 137.001C57.0177 137.001 57.9805 137.001 58.9433 137.001C60.2271 136.841 61.3503 136.681 62.6341 136.361C64.8807 135.88 67.1273 135.24 69.3738 134.44C73.3856 133.159 77.3973 131.559 81.2486 130.118C87.3465 127.717 93.4443 125.316 99.5422 122.755C104.356 120.674 109.17 118.433 113.824 116.192C116.873 114.752 119.922 113.151 122.81 111.551C127.303 109.15 131.476 106.429 135.648 103.387C138.376 101.466 140.943 99.5457 143.35 97.3048C144.795 96.0243 146.078 94.7438 147.362 93.1431C148.004 92.3428 148.646 91.3824 148.967 90.422C149.448 89.4616 149.609 88.3412 149.609 87.2207C149.609 86.1003 149.288 85.1399 148.806 84.1795C148.165 82.899 147.362 81.7785 146.399 80.6581C145.437 79.5376 144.313 78.5772 143.35 77.7769C141.906 76.4964 140.141 75.3759 138.536 74.0954C135.006 71.5344 131.315 69.1334 127.464 67.0526C123.773 64.9717 119.922 63.0509 115.91 61.1302C112.059 59.3695 108.208 57.6087 104.356 55.848C100.826 54.2474 97.2956 52.8068 93.6048 51.3662C92.9629 51.0461 92.1605 50.726 91.6791 50.2458C91.1977 49.7656 90.8768 49.4454 90.7163 48.8052C90.5559 48.4851 90.7163 48.1649 90.8768 47.8448C92.0001 46.0841 92.321 44.1633 91.8396 42.0825C91.6791 41.4422 91.5187 40.8019 91.0373 40.1617C91.0373 40.3217 91.0373 40.4818 91.1977 40.6419C91.5187 41.2821 91.6791 41.9224 91.8396 42.7227C92.0001 44.1633 91.8396 45.4438 91.3582 46.7243C91.3582 46.8844 91.1977 47.0445 91.0373 47.3646C91.1977 47.2045 91.1977 47.0445 91.3582 46.8844C91.8396 45.6039 92.1606 44.3234 91.8396 42.8828C91.6791 42.2425 91.5187 41.4422 91.1977 40.8019C91.1977 40.6419 91.0373 40.4818 91.0373 40.3217L90.8768 40.1617L90.7163 40.0016V39.8416C90.3954 39.2013 89.914 38.7211 89.4326 38.2409C87.9883 36.6403 86.3836 36.1601 84.7789 36C84.2975 36 83.8161 36 83.4952 36.1601C81.73 36.3201 80.2858 37.1205 79.1625 38.401C78.3601 39.2013 77.8787 40.1617 77.5578 41.2821C77.3973 41.9224 77.2369 42.4026 77.2369 43.0428C77.0764 43.363 77.0764 43.6831 77.0764 44.0032C76.9159 44.8036 76.7555 45.764 76.595 46.5643C75.7926 49.4454 74.3484 51.6863 71.9414 53.4471C69.6948 55.0477 67.1273 55.848 64.2388 56.1682C63.276 56.3282 62.3132 56.3282 61.1899 56.1682C59.9061 56.1682 58.7828 56.0081 57.4991 55.688C56.2153 55.3678 55.092 55.0477 54.1292 54.2474C52.364 53.287 51.4012 51.8464 50.7593 49.9256ZM118.638 109.31C112.701 115.232 105.48 118.113 96.9746 118.273C88.4697 118.113 81.0881 115.072 75.1507 108.99C69.3738 103.067 66.6458 96.0243 66.4854 88.8214C66.4854 70.8941 80.2858 57.1286 97.2956 57.4487C105.48 57.6087 112.54 60.4899 118.478 66.2522C124.415 72.1746 127.464 79.5376 127.624 87.861C127.464 96.1844 124.575 103.387 118.638 109.31Z" fill="white"/>
<path d="M97.666 108.143C108.822 108.143 117.866 99.0986 117.866 87.9424C117.866 76.7861 108.822 67.7422 97.666 67.7422C86.5097 67.7422 77.4658 76.7861 77.4658 87.9424C77.4658 99.0986 86.5097 108.143 97.666 108.143Z" fill="white"/>
</svg>
